<?xml version="1.0" encoding="UTF-8"?>
<svg id="Layer_1" xmlns="http://www.w3.org/2000/svg" version="1.1" viewBox="0 0 81.21 67.05">
  <!-- Generator: Adobe Illustrator 30.3.0, SVG Export Plug-In . SVG Version: 2.1.3 Build 182)  -->
  <defs>
    <style>
      .st0 {
        font-family: Satoshi-Bold, Satoshi;
        font-size: 48px;
        font-weight: 700;
      }

      .st0, .st1 {
        fill: #1c1c1c;
      }

      .st2 {
        fill: #474747;
      }
    </style>
  </defs>
  <path class="st1" d="M5.93,28.59C5.93,15.18,14.89,5.51,28.65,5.51c10.64,0,18.81,6.25,19.84,15.87h-10.22c-1.14-4.69-5.23-6.73-9.86-6.73-8.05,0-12.2,5.65-12.2,14.24s5.05,13.4,12.14,13.4,10.58-4.97,11-9.59h-11.78v-7.53h20.92v25.54h-8.36l-.54-4.03c-2.4,2.82-7.21,4.69-12.5,4.69-12.44,0-21.16-9.14-21.16-22.78"/>
  <path class="st1" d="M65.68,37.22h-1.86c-3.34,0-5.36,1.48-5.36,5.24v8.24h-5.85v-18.96h5.51l.3,2.81c.8-1.86,2.47-3.12,5.02-3.12.68,0,1.44.08,2.24.27v5.51Z"/>
  <path class="st2" d="M39.07,33.09l-22.07.02s1,8.76,11.53,8.76c9.7-.37,10.54-8.78,10.54-8.78Z"/>
  <text class="st0" transform="translate(59.14 50.7)"><tspan x="0" y="0">.</tspan></text>
</svg>